<svg version="1.1" id="Layer_1" xmlns="http://www.w3.org/2000/svg" xmlns:xlink="http://www.w3.org/1999/xlink" x="0px" y="0px"
	 width="100%" viewBox="0 0 2044 2044" enable-background="new 0 0 2044 2044" xml:space="preserve">
<path fill="#000000" opacity="1.000000" stroke="none" 
	d="
M2045.000000,793.000000 
	C2045.000000,1210.666626 2045.000000,1627.833374 2045.000000,2045.000000 
	C1363.666626,2045.000000 682.333313,2045.000000 1.000000,2045.000000 
	C1.000000,1363.666626 1.000000,682.333313 1.000000,1.000000 
	C682.333313,1.000000 1363.666626,1.000000 2045.000000,1.000000 
	C2045.000000,264.833344 2045.000000,528.666687 2045.000000,793.000000 
M631.938538,119.543571 
	C625.720581,122.037872 619.412476,124.330925 613.302856,127.067032 
	C599.179382,133.391968 585.106140,139.833817 571.102661,146.419937 
	C562.372009,150.526169 553.745728,154.866135 545.180054,159.308365 
	C533.078613,165.584229 520.925720,171.786224 509.078125,178.518402 
	C499.041718,184.221420 489.430145,190.669159 479.588928,196.719528 
	C469.569061,202.879700 459.318848,208.684662 449.502747,215.150970 
	C440.531219,221.060959 431.956390,227.581009 423.296356,233.953964 
	C414.258820,240.604752 405.262146,247.315033 396.372162,254.161026 
	C389.378174,259.546936 382.516479,265.109222 375.697540,270.716644 
	C364.048462,280.296112 351.692017,289.179291 341.027954,299.761078 
	C312.494843,328.074036 284.573792,357.009552 256.693573,385.971130 
	C248.398682,394.587738 240.887878,403.981720 233.303238,413.252960 
	C225.984436,422.199249 218.923111,431.363007 211.949997,440.583466 
	C203.485809,451.775482 195.047104,462.995819 186.944672,474.449615 
	C180.007492,484.256256 173.528763,494.388641 166.906769,504.416229 
	C162.261261,511.450867 157.432297,518.386292 153.190674,525.660706 
	C146.404755,537.298767 140.033432,549.178650 133.496323,560.961548 
	C130.037750,567.195557 126.400909,573.340820 123.197266,579.703735 
	C118.224236,589.580750 113.500107,599.584656 108.766281,609.580139 
	C103.115936,621.510681 97.366013,633.400818 92.046181,645.478882 
	C88.668381,653.147705 86.064514,661.154236 82.989189,668.960266 
	C78.733482,679.762329 74.014702,690.395386 70.130249,701.326843 
	C65.778427,713.573608 62.001972,726.031738 58.220242,738.472412 
	C53.686451,753.386963 48.895191,768.252380 45.149799,783.370544 
	C39.970932,804.274963 35.192867,825.304932 31.129086,846.451355 
	C27.713554,864.224426 25.361776,882.213257 22.914955,900.157837 
	C20.683792,916.520752 18.509285,932.914917 17.128891,949.364014 
	C15.602312,967.555298 14.443883,985.815735 14.155214,1004.062378 
	C13.832095,1024.486694 14.503138,1044.933472 15.047683,1065.362427 
	C15.438734,1080.032959 16.069252,1094.708130 17.081186,1109.347534 
	C17.963963,1122.118530 19.313728,1134.868408 20.848877,1147.580322 
	C22.678658,1162.732056 24.682264,1177.871948 27.060766,1192.945923 
	C29.451960,1208.099976 32.150970,1223.216431 35.192360,1238.252808 
	C36.958183,1246.982910 39.604351,1255.539307 41.957787,1264.145508 
	C47.267914,1283.563843 52.261623,1303.079956 58.101852,1322.338623 
	C63.519676,1340.204224 69.656105,1357.862793 75.897285,1375.463257 
	C79.112595,1384.530518 83.158653,1393.309937 86.981895,1402.153442 
	C93.567413,1417.386353 100.051132,1432.669800 107.003563,1447.735352 
	C111.710609,1457.935059 117.053528,1467.847168 122.279816,1477.799805 
	C129.776779,1492.076538 137.244095,1506.374390 145.070557,1520.470947 
	C151.045288,1531.232300 157.249557,1541.893311 163.906845,1552.241943 
	C172.686111,1565.889038 181.918488,1579.248657 191.130417,1592.611694 
	C196.911301,1600.997681 202.830795,1609.301636 209.013153,1617.394043 
	C217.625671,1628.667603 226.470108,1639.767090 235.355911,1650.827881 
	C240.590317,1657.343628 245.923676,1663.796875 251.520767,1670.000122 
	C260.168762,1679.585083 268.778900,1689.235962 277.937225,1698.322632 
	C305.237335,1725.409058 331.372559,1753.723267 361.406677,1777.955688 
	C370.725006,1785.473999 379.584320,1793.570435 389.027405,1800.922241 
	C399.291107,1808.912476 409.930450,1816.427124 420.514526,1823.997437 
	C432.878448,1832.840942 445.188324,1841.778076 457.839539,1850.196655 
	C469.817078,1858.167114 482.035095,1865.811890 494.457489,1873.068970 
	C509.712677,1881.980957 525.155090,1890.596313 540.767517,1898.866333 
	C554.984741,1906.397461 569.353577,1913.698975 583.991211,1920.364868 
	C600.578491,1927.918457 617.366455,1935.103149 634.383362,1941.622925 
	C653.629517,1948.996826 673.124451,1955.764648 692.703613,1962.211914 
	C708.768066,1967.501953 725.053040,1972.156494 741.354126,1976.682495 
	C754.805359,1980.417480 768.339111,1983.946289 781.987244,1986.859497 
	C802.304016,1991.196045 822.676758,1995.379028 843.171082,1998.741577 
	C859.928223,2001.490967 876.861572,2003.354492 893.783508,2004.861206 
	C911.706177,2006.456909 929.699402,2007.336670 947.677124,2008.215698 
	C964.243042,2009.025757 980.831299,2009.369507 997.404907,2010.038818 
	C1000.868469,2010.178589 1002.165344,2008.974365 1002.049683,2005.447510 
	C1001.840210,1999.061523 1002.008118,1992.663330 1002.007751,1986.270264 
	C1002.006653,1967.093994 1001.987244,1947.917603 1001.999939,1928.741333 
	C1002.013000,1909.066406 1002.078247,1889.391602 1002.079285,1869.716675 
	C1002.080444,1847.711670 1002.025818,1825.706543 1002.013184,1803.701538 
	C1002.002319,1784.692139 1002.021240,1765.682739 1002.017883,1746.673340 
	C1002.014465,1727.664551 1002.061340,1708.655396 1001.967407,1689.646973 
	C1001.908936,1677.827637 1001.470032,1666.009033 1001.488953,1654.190674 
	C1001.513916,1638.606323 1001.743958,1623.020874 1002.062927,1607.439697 
	C1002.137024,1603.823242 1000.701660,1602.716309 997.323303,1602.951904 
	C992.904663,1603.260010 988.440979,1603.708008 984.043945,1603.406616 
	C964.643677,1602.076782 945.198242,1601.044556 925.890137,1598.843506 
	C909.679749,1596.995483 893.502319,1594.302124 877.553894,1590.855713 
	C858.217163,1586.676880 839.003113,1581.776489 819.990845,1576.302734 
	C806.829651,1572.513550 793.936157,1567.631226 781.222534,1562.495605 
	C768.237854,1557.250732 755.486267,1551.374023 742.878357,1545.266602 
	C730.946411,1539.486694 719.119812,1533.419189 707.635803,1526.803223 
	C694.187683,1519.055786 680.956604,1510.885498 668.017334,1502.316040 
	C658.539368,1496.038818 649.448914,1489.111938 640.608948,1481.952271 
	C629.013367,1472.560669 617.189087,1463.305054 606.623901,1452.821289 
	C589.948608,1436.274780 572.177429,1420.749512 558.039978,1401.703979 
	C548.779907,1389.229126 538.386353,1377.601196 528.918884,1365.272583 
	C522.388062,1356.768188 516.069458,1348.016968 510.551300,1338.837769 
	C501.349030,1323.530396 492.704620,1307.878906 484.145813,1292.197266 
	C480.029358,1284.655151 476.441681,1276.802856 472.977386,1268.931396 
	C468.392639,1258.513916 464.025238,1247.994873 459.822662,1237.416870 
	C456.045715,1227.910400 452.096558,1218.421875 449.155029,1208.645142 
	C444.497864,1193.166504 440.465881,1177.492920 436.463409,1161.826660 
	C433.807159,1151.429565 431.247009,1140.973877 429.406097,1130.411743 
	C427.493896,1119.440552 426.367096,1108.324219 425.137390,1097.244629 
	C423.627716,1083.642944 421.555145,1070.037231 421.158905,1056.391602 
	C420.164642,1022.152405 421.052155,987.916199 426.096863,953.970154 
	C428.879395,935.246277 432.172546,916.559937 436.240692,898.077942 
	C439.366791,883.875793 443.699280,869.902100 448.160461,856.040955 
	C452.985962,841.047974 458.288971,826.190186 463.946136,811.489868 
	C467.846802,801.353821 472.465576,791.470581 477.199554,781.685425 
	C482.069794,771.618652 487.205933,761.658997 492.711304,751.927124 
	C498.221375,742.186890 504.201111,732.703064 510.212708,723.258179 
	C517.558289,711.717407 524.973389,700.212219 532.707153,688.930664 
	C537.032104,682.621704 541.900818,676.661194 546.812561,670.784424 
	C554.919861,661.084290 562.797424,651.128845 571.595276,642.081726 
	C592.518494,620.565491 613.405701,598.966675 638.015991,581.439148 
	C644.764282,576.632996 650.870728,570.933289 657.542480,566.010498 
	C672.705994,554.821960 688.233459,544.213562 705.012024,535.467102 
	C716.810730,529.316650 727.878357,521.714539 739.843506,515.945129 
	C755.262085,508.510590 771.149414,502.007599 787.027344,495.578979 
	C799.589844,490.492676 812.192139,485.205475 825.224670,481.648529 
	C845.333435,476.160309 865.711304,471.479614 886.187378,467.568329 
	C905.108948,463.954041 924.238708,461.060303 943.408386,459.223206 
	C961.061279,457.531525 978.889099,457.662415 996.640442,457.007416 
	C998.379150,456.943268 1000.122314,456.998810 1001.990479,456.998810 
	C1001.990479,436.017212 1002.064026,415.845825 1001.962219,395.675323 
	C1001.903320,383.996735 1001.439453,372.320282 1001.375366,360.641663 
	C1001.269287,341.300781 1001.247009,321.958405 1001.359070,302.617645 
	C1001.482422,281.334656 1001.974243,260.052826 1001.977234,238.770432 
	C1001.980103,219.041016 1001.385986,199.311768 1001.360352,179.582047 
	C1001.338257,162.604294 1001.805786,145.626465 1001.940125,128.647751 
	C1002.005737,120.352547 1001.724426,112.055046 1001.742798,103.758911 
	C1001.779175,87.320221 1001.978577,70.881409 1001.888794,54.443855 
	C1001.881531,53.120045 1000.422058,51.079277 999.191650,50.650429 
	C997.149841,49.938736 994.739441,50.097290 992.495483,50.182316 
	C973.947571,50.885113 955.390625,51.443359 936.859802,52.468807 
	C920.534058,53.372238 904.199890,54.448936 887.940918,56.137627 
	C873.066956,57.682468 858.273254,60.045452 843.472595,62.239105 
	C829.024414,64.380516 814.521179,66.307350 800.208130,69.161217 
	C783.821716,72.428482 767.550781,76.348465 751.354492,80.474724 
	C735.377502,84.545120 719.471924,88.948944 703.695496,93.735504 
	C692.346313,97.178848 681.238586,101.428970 670.063660,105.432289 
	C657.541748,109.918152 645.065491,114.531456 631.938538,119.543571 
M1679.391113,1777.136841 
	C1691.187500,1766.331177 1703.336182,1755.881714 1714.702637,1744.641357 
	C1734.806885,1724.759888 1754.626953,1704.580811 1774.183350,1684.159912 
	C1784.250244,1673.648071 1793.532715,1662.381592 1803.093018,1651.389282 
	C1808.763062,1644.870117 1814.298584,1638.233643 1819.863647,1631.623901 
	C1821.953735,1629.141113 1824.066528,1626.665161 1825.977783,1624.046509 
	C1833.468018,1613.783691 1840.931152,1603.500610 1848.309448,1593.157227 
	C1855.278809,1583.387207 1862.426758,1573.725830 1868.959351,1563.667725 
	C1877.920654,1549.869873 1886.396973,1535.756348 1895.037720,1521.751343 
	C1899.329712,1514.794678 1903.766602,1507.911133 1907.700439,1500.754150 
	C1912.066162,1492.811523 1915.936279,1484.596313 1920.016846,1476.497192 
	C1925.340576,1465.930420 1930.801636,1455.429565 1935.936768,1444.771729 
	C1940.393066,1435.522583 1944.520386,1426.113281 1948.716187,1416.740356 
	C1953.498169,1406.058350 1958.623291,1395.503052 1962.819946,1384.592896 
	C1968.068115,1370.948730 1972.650024,1357.041870 1977.281738,1343.168945 
	C1981.363403,1330.943115 1985.233398,1318.643188 1988.977051,1306.309082 
	C1991.513306,1297.952881 1993.728027,1289.497070 1995.979004,1281.057007 
	C1998.386597,1272.029663 2000.901001,1263.021362 2002.953247,1253.911011 
	C2006.718262,1237.196533 2010.349976,1220.447632 2013.702759,1203.646118 
	C2015.786255,1193.205566 2017.458984,1182.671265 2018.943359,1172.126465 
	C2020.535034,1160.820679 2021.766357,1149.461792 2023.016235,1138.110840 
	C2024.601685,1123.711426 2026.167969,1109.307983 2027.505493,1094.884277 
	C2028.251709,1086.833984 2028.698608,1078.745239 2028.960327,1070.663330 
	C2029.416870,1056.571045 2029.716919,1042.471924 2029.908691,1028.373413 
	C2030.052979,1017.770447 2030.171753,1007.156189 2029.846680,996.560974 
	C2029.543457,986.678101 2028.650635,976.812927 2027.997070,966.941284 
	C2027.131592,953.870178 2026.543945,940.771667 2025.289307,927.737671 
	C2023.937500,913.697144 2022.164673,899.687561 2020.183960,885.719971 
	C2018.287964,872.349854 2016.104004,859.011292 2013.652100,845.731689 
	C2011.119751,832.016602 2008.254150,818.357971 2005.259155,804.735107 
	C2003.442139,796.470398 2001.259155,788.276489 1998.966064,780.127930 
	C1994.412964,763.947632 1989.858765,747.763062 1984.948975,731.688965 
	C1980.651245,717.619080 1976.051636,703.633728 1971.228638,689.734802 
	C1968.156250,680.880920 1964.621704,672.172791 1960.960571,663.540955 
	C1954.419067,648.118713 1947.705811,632.767578 1940.899536,617.460022 
	C1937.811401,610.514526 1934.447266,603.684265 1931.002075,596.906494 
	C1922.823120,580.816528 1914.569458,564.763977 1906.236328,548.753357 
	C1904.024902,544.504822 1901.443237,540.447083 1898.985718,536.329102 
	C1893.114624,526.490845 1887.303223,516.615295 1881.290405,506.864075 
	C1878.431030,502.226654 1875.114990,497.873199 1872.097656,493.330109 
	C1866.463989,484.848297 1861.017944,476.239227 1855.259766,467.843658 
	C1851.510498,462.377472 1847.268433,457.252045 1843.386963,451.873077 
	C1835.781738,441.333832 1828.510620,430.544312 1820.650757,420.200745 
	C1814.459595,412.053192 1807.679321,404.344574 1801.002197,396.577332 
	C1793.634155,388.006592 1786.456543,379.226410 1778.544922,371.177399 
	C1755.880615,348.119293 1732.934692,325.336823 1709.978516,302.567963 
	C1705.828979,298.452209 1701.091431,294.931641 1696.650024,291.107666 
	C1689.210938,284.702942 1681.924927,278.112640 1674.332764,271.895630 
	C1662.940552,262.566895 1651.439941,253.363190 1639.793701,244.354294 
	C1631.230957,237.730621 1622.466797,231.353424 1613.600708,225.139832 
	C1603.405151,217.994446 1593.067505,211.045319 1582.664551,204.204071 
	C1571.677490,196.978653 1560.613892,189.863113 1549.444580,182.923706 
	C1541.627441,178.067032 1533.587891,173.567474 1525.626709,168.944641 
	C1519.967529,165.658478 1514.391479,162.200256 1508.565918,159.236282 
	C1500.495117,155.129868 1492.202515,151.462067 1484.046753,147.519638 
	C1476.227417,143.739883 1468.547363,139.661575 1460.649414,136.057968 
	C1452.093262,132.154175 1443.323364,128.722031 1434.710083,124.939926 
	C1429.487183,122.646568 1424.495483,119.799973 1419.202637,117.698509 
	C1410.355957,114.185913 1401.338501,111.105568 1392.416748,107.779243 
	C1382.164307,103.956795 1372.079224,99.620529 1361.667114,96.306274 
	C1345.817261,91.261147 1329.860107,86.465454 1313.746826,82.355194 
	C1289.342529,76.130089 1264.827515,70.301758 1240.236084,64.862694 
	C1226.657227,61.859383 1212.853271,59.823944 1199.101318,57.667820 
	C1187.904907,55.912380 1176.650513,54.493645 1165.393433,53.167000 
	C1152.434448,51.639790 1139.467163,50.072136 1126.460449,49.095894 
	C1115.704468,48.288597 1104.883545,48.377998 1094.095825,47.958668 
	C1078.664062,47.358826 1063.228882,46.791451 1047.811646,45.917992 
	C1043.166382,45.654816 1041.882446,47.073154 1041.896729,51.750061 
	C1042.059814,105.082436 1042.000854,158.415497 1042.000977,211.748367 
	C1042.001099,291.913635 1042.000977,372.078888 1042.000977,452.427490 
	C1208.293823,453.122192 1351.182617,510.972656 1465.690796,631.879517 
	C1578.990112,751.510132 1630.081177,896.094604 1621.498535,1060.168579 
	C1614.489746,1194.153564 1564.698242,1312.779541 1474.153442,1411.374878 
	C1358.681763,1537.113647 1213.189697,1598.798462 1042.001099,1599.268066 
	C1042.001099,1601.433594 1042.001099,1603.249268 1042.001099,1605.065063 
	C1042.000854,1712.230835 1042.000732,1819.396484 1042.000610,1926.562256 
	C1042.000610,1951.395386 1042.012085,1976.228394 1041.986694,2001.061523 
	C1041.983521,2004.162598 1042.118774,2005.826416 1046.486572,2005.423340 
	C1054.991455,2004.638672 1063.610962,2005.167969 1072.178955,2004.976685 
	C1084.264282,2004.707031 1096.367676,2004.608887 1108.423096,2003.821411 
	C1120.409424,2003.038330 1132.347412,2001.508179 1144.303833,2000.278687 
	C1159.763062,1998.689087 1175.263428,1997.405640 1190.663696,1995.367188 
	C1204.115967,1993.586670 1217.472290,1991.044434 1230.837524,1988.651855 
	C1243.240967,1986.431396 1255.658813,1984.230347 1267.961304,1981.524780 
	C1278.806152,1979.139893 1289.537598,1976.205078 1300.252319,1973.269775 
	C1315.625366,1969.058350 1331.055054,1964.996094 1346.243652,1960.185425 
	C1361.968262,1955.205200 1377.477661,1949.528809 1392.998535,1943.927734 
	C1404.584351,1939.746338 1416.145874,1935.458862 1427.516968,1930.734375 
	C1436.610596,1926.956177 1445.401611,1922.449951 1454.325928,1918.264771 
	C1466.718994,1912.453125 1479.222290,1906.862549 1491.469971,1900.758667 
	C1502.018311,1895.501953 1512.297485,1889.701416 1522.652954,1884.062866 
	C1532.230469,1878.848145 1541.894531,1873.770020 1551.260864,1868.195679 
	C1562.952148,1861.237427 1574.567627,1854.116333 1585.867798,1846.546143 
	C1598.587280,1838.024780 1610.975708,1829.003418 1623.395752,1820.043701 
	C1629.577026,1815.584473 1635.502930,1810.771484 1641.552124,1806.128662 
	C1649.879272,1799.737549 1658.201538,1793.339844 1666.550415,1786.977295 
	C1670.649658,1783.853271 1674.803833,1780.801147 1679.391113,1777.136841 
M608.470764,772.944946 
	C608.771423,772.388062 608.948120,771.483826 609.391174,771.325623 
	C618.379883,768.116638 627.362854,764.883789 636.420898,761.878601 
	C649.197021,757.640015 662.304382,758.120911 675.335449,760.069763 
	C691.671082,762.512939 706.269409,769.339233 719.542908,779.058472 
	C724.156921,782.436890 728.677979,785.942139 733.998230,789.961060 
	C733.998230,773.224121 734.056702,757.754456 733.896362,742.287109 
	C733.882263,740.931946 732.755798,738.881653 731.599609,738.355652 
	C721.489441,733.757263 711.558228,728.382629 700.971375,725.323303 
	C690.480530,722.291748 679.339844,721.068542 668.393127,720.198486 
	C660.060059,719.536133 651.512695,720.097595 643.190674,721.146362 
	C632.967163,722.434753 622.777710,724.375977 612.755066,726.789185 
	C596.176331,730.780823 581.482056,738.931885 568.850464,750.181091 
	C560.715027,757.426208 552.989380,765.470886 546.631897,774.277588 
	C540.300171,783.048584 535.653015,793.090210 530.726685,802.807678 
	C524.388245,815.310608 521.206238,829.102722 520.408447,842.726379 
	C519.404175,859.876648 518.711243,877.222351 522.764648,894.448792 
	C526.335083,909.622620 531.132751,923.979309 539.552612,937.162109 
	C548.788635,951.622803 560.908020,963.402039 573.951111,974.183350 
	C580.173279,979.326477 587.362793,983.582153 594.679016,987.046997 
	C603.731445,991.333923 613.179810,995.064148 622.814026,997.759155 
	C631.169495,1000.096558 639.987915,1001.421875 648.664307,1001.816101 
	C661.095581,1002.381104 673.433044,1001.651184 685.909302,999.361206 
	C701.804382,996.443665 716.409912,990.905640 730.603943,983.717712 
	C731.990356,983.015564 733.833984,981.339355 733.850830,980.093506 
	C734.069275,963.888672 733.995667,947.679993 733.995667,930.653137 
	C731.440002,932.845764 729.553772,934.402161 727.735474,936.034363 
	C716.923462,945.739868 704.458740,952.382812 690.956970,957.770569 
	C676.400513,963.579163 661.483398,963.363586 646.464172,962.829956 
	C640.921021,962.632935 635.180176,961.310547 629.994507,959.301392 
	C622.107056,956.245422 614.383911,952.567322 607.029053,948.383423 
	C597.006897,942.682251 588.567871,935.058228 581.818848,925.527405 
	C575.190674,916.167236 569.313171,906.532227 566.663879,895.223022 
	C564.798340,887.259644 561.812378,879.387024 561.209778,871.333008 
	C559.646545,850.438538 563.474426,830.463989 572.736938,811.369629 
	C580.690308,794.973938 592.130371,782.258484 608.470764,772.944946 
M773.490234,1166.007568 
	C770.952026,1171.466675 768.709717,1177.088501 765.815125,1182.351685 
	C759.415283,1193.988403 756.835999,1206.758545 755.187073,1219.603271 
	C753.888733,1229.717651 754.471924,1240.062500 753.965942,1250.292358 
	C753.278809,1264.182495 756.431458,1277.580811 760.468140,1290.523804 
	C766.093567,1308.560913 775.752808,1324.616943 789.460693,1337.929077 
	C795.661804,1343.951172 801.703796,1350.208496 808.426636,1355.600342 
	C814.268311,1360.285278 820.610352,1364.672729 827.373840,1367.803223 
	C836.868652,1372.198120 846.777100,1375.958130 856.849792,1378.765625 
	C865.207092,1381.094849 874.024475,1382.450562 882.697144,1382.809082 
	C895.121155,1383.322510 907.450439,1382.701050 919.940247,1380.391357 
	C935.784668,1377.461060 950.370728,1372.067383 964.480164,1364.812134 
	C965.957703,1364.052368 967.826660,1362.148926 967.847229,1360.751587 
	C968.083923,1344.674561 967.998108,1328.592896 967.998108,1312.411987 
	C967.350708,1312.586304 966.992371,1312.573608 966.813599,1312.746582 
	C957.364685,1321.889771 946.646240,1329.240479 934.845581,1334.957764 
	C918.129150,1343.056885 900.327637,1345.428101 882.007385,1343.895630 
	C875.939392,1343.388062 869.695312,1342.408325 864.028198,1340.306274 
	C856.109131,1337.368530 848.569824,1333.343384 841.023315,1329.480347 
	C830.896362,1324.296265 822.884094,1316.428345 816.255066,1307.438721 
	C807.059570,1294.968506 800.703979,1281.216675 797.677490,1265.695435 
	C794.813354,1251.006470 794.173096,1236.423462 797.229248,1222.006348 
	C799.534119,1211.133667 802.874878,1200.200439 807.644287,1190.195068 
	C814.973938,1174.818970 826.758789,1162.832520 841.518860,1154.146362 
	C855.307678,1146.031738 870.005188,1140.694336 886.331055,1140.980469 
	C894.634460,1141.125977 903.167480,1139.866821 911.197205,1141.372803 
	C925.578125,1144.070312 938.984680,1149.933594 951.010071,1158.523193 
	C956.603088,1162.518066 962.095337,1166.654175 967.998718,1170.994995 
	C967.998718,1154.953125 968.076050,1139.482544 967.873596,1124.015625 
	C967.854370,1122.545410 966.412781,1120.590210 965.073059,1119.723022 
	C956.730286,1114.322754 948.080139,1109.484253 938.133301,1107.635254 
	C927.845886,1105.723145 917.603516,1103.393921 907.232666,1102.165405 
	C900.003113,1101.308960 892.589478,1101.938721 885.259521,1102.024170 
	C881.134827,1102.072388 876.929626,1101.906494 872.907288,1102.640381 
	C864.707764,1104.136719 856.683899,1106.740234 848.447937,1107.857056 
	C836.812683,1109.435059 826.695190,1114.910522 817.278687,1120.816406 
	C805.702942,1128.076538 794.799255,1136.800415 786.473145,1148.050537 
	C782.230225,1153.783325 778.169067,1159.650757 773.490234,1166.007568 
M775.963196,868.390198 
	C773.309326,876.770386 769.699158,884.992676 768.281372,893.577026 
	C766.968506,901.526672 768.241211,909.872314 767.947815,918.028137 
	C767.419495,932.716187 772.389465,945.924255 778.417419,958.872986 
	C783.531128,969.857666 791.661438,978.543823 800.843201,986.080383 
	C805.745361,990.104065 811.561523,993.239502 817.370117,995.887817 
	C830.288940,1001.777893 844.209412,1003.333252 858.072205,1001.723267 
	C866.167664,1000.783142 874.325500,997.900208 881.749084,994.395569 
	C888.338013,991.284973 893.952209,986.109741 900.001160,981.842651 
	C900.001160,985.205566 900.189087,988.853760 899.947510,992.473206 
	C899.712646,995.991028 901.029053,997.125488 904.530640,997.065674 
	C915.193237,996.883301 925.867432,996.784241 936.523743,997.101685 
	C941.022888,997.235779 942.098633,995.743103 942.087769,991.420288 
	C941.951965,937.425171 942.000732,883.429565 941.988953,829.434082 
	C941.988647,828.003967 941.840149,826.573853 941.770386,825.317627 
	C927.631409,825.317627 913.891785,825.317627 899.726074,825.317627 
	C899.726074,830.984314 899.726074,836.338318 899.726074,842.289124 
	C892.540833,834.506653 884.973267,828.447937 875.651855,824.988403 
	C864.722656,820.932251 853.587646,819.336853 841.801514,820.849915 
	C828.645630,822.538940 816.683289,826.434082 805.452698,833.697388 
	C792.230103,842.248901 782.883118,853.739746 775.963196,868.390198 
M1158.498779,1377.999756 
	C1164.263794,1377.999756 1170.028931,1377.999756 1175.706543,1377.999756 
	C1175.706543,1320.349731 1175.706543,1263.278931 1175.706543,1206.298096 
	C1161.671997,1206.298096 1147.932373,1206.298096 1134.031616,1206.298096 
	C1134.031616,1211.885132 1134.031616,1217.176392 1134.031616,1223.363525 
	C1132.645020,1222.142212 1131.735718,1221.454102 1130.958984,1220.639648 
	C1123.671875,1212.998413 1115.008179,1206.961548 1104.989624,1204.296631 
	C1095.383423,1201.741455 1085.462280,1200.303467 1075.080200,1201.760498 
	C1060.851685,1203.757324 1047.768311,1208.536987 1036.348267,1216.607422 
	C1026.639038,1223.468750 1018.595276,1232.470947 1012.952332,1243.410889 
	C1006.660950,1255.608398 1001.961060,1268.101807 1001.997375,1282.024658 
	C1002.015198,1288.858154 1001.232361,1295.800659 1002.181946,1302.499512 
	C1003.577454,1312.343994 1005.053589,1322.452515 1008.570251,1331.655640 
	C1013.736938,1345.176880 1021.914734,1357.228638 1033.743164,1366.066528 
	C1039.344604,1370.251709 1045.512329,1373.827026 1051.797729,1376.917114 
	C1063.999512,1382.916016 1077.297974,1384.307983 1090.499268,1382.733521 
	C1099.089722,1381.709229 1107.757690,1378.984009 1115.680176,1375.434326 
	C1122.329834,1372.455200 1127.951050,1367.180786 1134.000732,1362.941284 
	C1134.000732,1366.353882 1134.131470,1370.156372 1133.959229,1373.945190 
	C1133.822144,1376.959229 1134.927368,1378.124023 1138.001221,1378.048096 
	C1144.497070,1377.887939 1150.999634,1377.999634 1158.498779,1377.999756 
M1393.999023,974.499878 
	C1393.999023,952.670288 1394.194336,930.838318 1393.923096,909.012085 
	C1393.769409,896.644592 1396.146729,884.817017 1400.062622,873.241028 
	C1402.313599,866.586365 1411.578735,856.728638 1421.189819,857.910461 
	C1425.457886,858.435242 1429.858765,858.226624 1434.173462,857.949036 
	C1441.736084,857.462402 1446.930786,861.255798 1450.961182,866.980286 
	C1457.035400,875.608215 1457.735596,885.834473 1457.856201,895.758606 
	C1458.244507,927.748230 1458.076172,959.745911 1457.909912,991.739380 
	C1457.887939,995.959229 1459.119141,997.205994 1463.294556,997.089539 
	C1473.285034,996.810974 1483.297485,996.743652 1493.283447,997.094299 
	C1499.405884,997.309387 1501.148682,996.251831 1501.002319,989.011108 
	C1500.216797,950.183167 1502.646606,911.316956 1499.168823,872.505981 
	C1498.326294,863.104126 1496.147217,854.178833 1491.524170,846.390808 
	C1481.702759,829.844727 1465.410278,822.558594 1447.210205,820.196411 
	C1429.610229,817.912048 1413.346436,822.542480 1399.350220,833.943054 
	C1397.734863,835.258789 1396.104736,836.556519 1393.828125,838.388184 
	C1393.828125,833.409546 1393.828125,829.333557 1393.828125,825.261658 
	C1379.744507,825.261658 1366.007202,825.261658 1352.000977,825.261658 
	C1352.000977,830.324036 1352.000977,835.127808 1352.000977,839.931641 
	C1352.000977,890.422729 1352.050049,940.913879 1351.913208,991.404602 
	C1351.901489,995.702942 1352.937134,997.239136 1357.459839,997.102722 
	C1368.114990,996.781311 1378.788330,996.886292 1389.450073,997.064453 
	C1392.925049,997.122498 1394.211304,996.036072 1394.062500,992.494080 
	C1393.824707,986.838440 1393.998901,981.165405 1393.999023,974.499878 
M1106.955444,829.632751 
	C1106.111084,828.104126 1105.266724,826.575500 1104.475708,825.143250 
	C1089.312378,825.143250 1074.335083,825.143250 1058.776001,825.143250 
	C1059.214966,826.886780 1059.342407,828.479675 1059.995483,829.815613 
	C1065.375854,840.821899 1070.930908,851.742981 1076.284302,862.762146 
	C1084.378784,879.423401 1092.307129,896.165222 1100.391846,912.831177 
	C1108.328369,929.191467 1116.427979,945.472656 1124.351562,961.839172 
	C1131.312256,976.216797 1138.105103,990.675598 1145.053589,1005.059143 
	C1145.601074,1006.192566 1146.786743,1007.017700 1147.675903,1007.985962 
	C1148.443237,1007.068054 1149.431641,1006.258484 1149.942993,1005.215027 
	C1153.955200,997.029663 1157.892456,988.807312 1161.821411,980.581299 
	C1169.566528,964.365417 1177.276855,948.132874 1185.029785,931.920776 
	C1190.001587,921.523926 1194.950562,911.114990 1200.045166,900.778259 
	C1204.572510,891.592407 1209.378296,882.543640 1213.894653,873.352661 
	C1219.807251,861.320251 1225.599365,849.227905 1231.350586,837.117310 
	C1233.153442,833.320923 1234.657227,829.382507 1236.435547,825.184204 
	C1220.457275,825.184204 1205.342896,825.184204 1190.367188,825.184204 
	C1176.095825,856.898376 1161.916138,888.408875 1147.432373,920.595215 
	C1133.786499,890.171387 1120.392212,860.308044 1106.955444,829.632751 
M1032.999634,704.619873 
	C1032.999634,703.177734 1032.999634,701.735596 1032.999634,700.253113 
	C1018.764954,700.253113 1005.027222,700.253113 991.252075,700.253113 
	C991.252075,799.239197 991.252075,897.973022 991.252075,996.744202 
	C1005.242493,996.744202 1018.980469,996.744202 1032.999756,996.744202 
	C1032.999756,899.526123 1032.999756,802.563171 1032.999634,704.619873 
M1266.999756,1325.500000 
	C1266.999756,1285.741577 1266.999756,1245.983154 1266.999756,1206.287598 
	C1252.692139,1206.287598 1238.954224,1206.287598 1225.284912,1206.287598 
	C1225.284912,1263.641846 1225.284912,1320.708130 1225.284912,1377.712891 
	C1239.308716,1377.712891 1253.046631,1377.712891 1266.999756,1377.712891 
	C1266.999756,1360.451172 1266.999756,1343.475586 1266.999756,1325.500000 
M1303.999634,983.492065 
	C1303.999634,930.739014 1303.999634,877.985962 1303.999634,825.282288 
	C1289.700684,825.282288 1275.963623,825.282288 1262.351929,825.282288 
	C1262.169800,825.707336 1262.054688,825.850525 1262.054688,825.993713 
	C1262.031494,881.647705 1262.016113,937.301697 1262.000977,992.955688 
	C1262.000854,993.455505 1261.806885,994.113586 1262.051025,994.425415 
	C1262.776733,995.351990 1263.667847,996.867249 1264.509399,996.877197 
	C1277.602051,997.032349 1290.697266,996.985779 1303.999634,996.985779 
	C1303.999634,992.444824 1303.999634,988.466919 1303.999634,983.492065 
M1260.327759,742.142944 
	C1258.058716,748.044922 1256.674316,754.043945 1257.996948,760.420471 
	C1261.750488,778.517578 1280.417358,785.713684 1296.605713,778.083984 
	C1302.888306,775.122925 1306.313843,769.926147 1308.604004,763.841553 
	C1312.734375,752.867432 1308.850220,740.829285 1300.886719,734.660889 
	C1288.294556,724.907166 1269.883057,726.456482 1260.327759,742.142944 
M1240.924561,1161.999512 
	C1243.417847,1161.999512 1245.914185,1162.080688 1248.403931,1161.987183 
	C1269.000732,1161.214355 1276.057373,1142.170044 1270.761230,1126.157227 
	C1267.938721,1117.622803 1261.334351,1112.081909 1251.195679,1110.706299 
	C1242.081177,1109.469604 1234.582520,1110.955200 1227.873047,1117.019653 
	C1220.806396,1123.406982 1217.917480,1137.890869 1221.849731,1146.435425 
	C1225.539062,1154.452271 1231.461304,1159.741943 1240.924561,1161.999512 
z"/>
<path fill="#4682B4" opacity="1.000000" stroke="none" 
	d="
M632.253906,119.316437 
	C645.065491,114.531456 657.541748,109.918152 670.063660,105.432289 
	C681.238586,101.428970 692.346313,97.178848 703.695496,93.735504 
	C719.471924,88.948944 735.377502,84.545120 751.354492,80.474724 
	C767.550781,76.348465 783.821716,72.428482 800.208130,69.161217 
	C814.521179,66.307350 829.024414,64.380516 843.472595,62.239105 
	C858.273254,60.045452 873.066956,57.682468 887.940918,56.137627 
	C904.199890,54.448936 920.534058,53.372238 936.859802,52.468807 
	C955.390625,51.443359 973.947571,50.885113 992.495483,50.182316 
	C994.739441,50.097290 997.149841,49.938736 999.191650,50.650429 
	C1000.422058,51.079277 1001.881531,53.120045 1001.888794,54.443855 
	C1001.978577,70.881409 1001.779175,87.320221 1001.742798,103.758911 
	C1001.724426,112.055046 1002.005737,120.352547 1001.940125,128.647751 
	C1001.805786,145.626465 1001.338257,162.604294 1001.360352,179.582047 
	C1001.385986,199.311768 1001.980103,219.041016 1001.977234,238.770432 
	C1001.974243,260.052826 1001.482422,281.334656 1001.359070,302.617645 
	C1001.247009,321.958405 1001.269287,341.300781 1001.375366,360.641663 
	C1001.439453,372.320282 1001.903320,383.996735 1001.962219,395.675323 
	C1002.064026,415.845825 1001.990479,436.017212 1001.990479,456.998810 
	C1000.122314,456.998810 998.379150,456.943268 996.640442,457.007416 
	C978.889099,457.662415 961.061279,457.531525 943.408386,459.223206 
	C924.238708,461.060303 905.108948,463.954041 886.187378,467.568329 
	C865.711304,471.479614 845.333435,476.160309 825.224670,481.648529 
	C812.192139,485.205475 799.589844,490.492676 787.027344,495.578979 
	C771.149414,502.007599 755.262085,508.510590 739.843506,515.945129 
	C727.878357,521.714539 716.810730,529.316650 705.012024,535.467102 
	C688.233459,544.213562 672.705994,554.821960 657.542480,566.010498 
	C650.870728,570.933289 644.764282,576.632996 638.015991,581.439148 
	C613.405701,598.966675 592.518494,620.565491 571.595276,642.081726 
	C562.797424,651.128845 554.919861,661.084290 546.812561,670.784424 
	C541.900818,676.661194 537.032104,682.621704 532.707153,688.930664 
	C524.973389,700.212219 517.558289,711.717407 510.212708,723.258179 
	C504.201111,732.703064 498.221375,742.186890 492.711304,751.927124 
	C487.205933,761.658997 482.069794,771.618652 477.199554,781.685425 
	C472.465576,791.470581 467.846802,801.353821 463.946136,811.489868 
	C458.288971,826.190186 452.985962,841.047974 448.160461,856.040955 
	C443.699280,869.902100 439.366791,883.875793 436.240692,898.077942 
	C432.172546,916.559937 428.879395,935.246277 426.096863,953.970154 
	C421.052155,987.916199 420.164642,1022.152405 421.158905,1056.391602 
	C421.555145,1070.037231 423.627716,1083.642944 425.137390,1097.244629 
	C426.367096,1108.324219 427.493896,1119.440552 429.406097,1130.411743 
	C431.247009,1140.973877 433.807159,1151.429565 436.463409,1161.826660 
	C440.465881,1177.492920 444.497864,1193.166504 449.155029,1208.645142 
	C452.096558,1218.421875 456.045715,1227.910400 459.822662,1237.416870 
	C464.025238,1247.994873 468.392639,1258.513916 472.977386,1268.931396 
	C476.441681,1276.802856 480.029358,1284.655151 484.145813,1292.197266 
	C492.704620,1307.878906 501.349030,1323.530396 510.551300,1338.837769 
	C516.069458,1348.016968 522.388062,1356.768188 528.918884,1365.272583 
	C538.386353,1377.601196 548.779907,1389.229126 558.039978,1401.703979 
	C572.177429,1420.749512 589.948608,1436.274780 606.623901,1452.821289 
	C617.189087,1463.305054 629.013367,1472.560669 640.608948,1481.952271 
	C649.448914,1489.111938 658.539368,1496.038818 668.017334,1502.316040 
	C680.956604,1510.885498 694.187683,1519.055786 707.635803,1526.803223 
	C719.119812,1533.419189 730.946411,1539.486694 742.878357,1545.266602 
	C755.486267,1551.374023 768.237854,1557.250732 781.222534,1562.495605 
	C793.936157,1567.631226 806.829651,1572.513550 819.990845,1576.302734 
	C839.003113,1581.776489 858.217163,1586.676880 877.553894,1590.855713 
	C893.502319,1594.302124 909.679749,1596.995483 925.890137,1598.843506 
	C945.198242,1601.044556 964.643677,1602.076782 984.043945,1603.406616 
	C988.440979,1603.708008 992.904663,1603.260010 997.323303,1602.951904 
	C1000.701660,1602.716309 1002.137024,1603.823242 1002.062927,1607.439697 
	C1001.743958,1623.020874 1001.513916,1638.606323 1001.488953,1654.190674 
	C1001.470032,1666.009033 1001.908936,1677.827637 1001.967407,1689.646973 
	C1002.061340,1708.655396 1002.014465,1727.664551 1002.017883,1746.673340 
	C1002.021240,1765.682739 1002.002319,1784.692139 1002.013184,1803.701538 
	C1002.025818,1825.706543 1002.080444,1847.711670 1002.079285,1869.716675 
	C1002.078247,1889.391602 1002.013000,1909.066406 1001.999939,1928.741333 
	C1001.987244,1947.917603 1002.006653,1967.093994 1002.007751,1986.270264 
	C1002.008118,1992.663330 1001.840210,1999.061523 1002.049683,2005.447510 
	C1002.165344,2008.974365 1000.868469,2010.178589 997.404907,2010.038818 
	C980.831299,2009.369507 964.243042,2009.025757 947.677124,2008.215698 
	C929.699402,2007.336670 911.706177,2006.456909 893.783508,2004.861206 
	C876.861572,2003.354492 859.928223,2001.490967 843.171082,1998.741577 
	C822.676758,1995.379028 802.304016,1991.196045 781.987244,1986.859497 
	C768.339111,1983.946289 754.805359,1980.417480 741.354126,1976.682495 
	C725.053040,1972.156494 708.768066,1967.501953 692.703613,1962.211914 
	C673.124451,1955.764648 653.629517,1948.996826 634.383362,1941.622925 
	C617.366455,1935.103149 600.578491,1927.918457 583.991211,1920.364868 
	C569.353577,1913.698975 554.984741,1906.397461 540.767517,1898.866333 
	C525.155090,1890.596313 509.712677,1881.980957 494.457489,1873.068970 
	C482.035095,1865.811890 469.817078,1858.167114 457.839539,1850.196655 
	C445.188324,1841.778076 432.878448,1832.840942 420.514526,1823.997437 
	C409.930450,1816.427124 399.291107,1808.912476 389.027405,1800.922241 
	C379.584320,1793.570435 370.725006,1785.473999 361.406677,1777.955688 
	C331.372559,1753.723267 305.237335,1725.409058 277.937225,1698.322632 
	C268.778900,1689.235962 260.168762,1679.585083 251.520767,1670.000122 
	C245.923676,1663.796875 240.590317,1657.343628 235.355911,1650.827881 
	C226.470108,1639.767090 217.625671,1628.667603 209.013153,1617.394043 
	C202.830795,1609.301636 196.911301,1600.997681 191.130417,1592.611694 
	C181.918488,1579.248657 172.686111,1565.889038 163.906845,1552.241943 
	C157.249557,1541.893311 151.045288,1531.232300 145.070557,1520.470947 
	C137.244095,1506.374390 129.776779,1492.076538 122.279816,1477.799805 
	C117.053528,1467.847168 111.710609,1457.935059 107.003563,1447.735352 
	C100.051132,1432.669800 93.567413,1417.386353 86.981895,1402.153442 
	C83.158653,1393.309937 79.112595,1384.530518 75.897285,1375.463257 
	C69.656105,1357.862793 63.519676,1340.204224 58.101852,1322.338623 
	C52.261623,1303.079956 47.267914,1283.563843 41.957787,1264.145508 
	C39.604351,1255.539307 36.958183,1246.982910 35.192360,1238.252808 
	C32.150970,1223.216431 29.451960,1208.099976 27.060766,1192.945923 
	C24.682264,1177.871948 22.678658,1162.732056 20.848877,1147.580322 
	C19.313728,1134.868408 17.963963,1122.118530 17.081186,1109.347534 
	C16.069252,1094.708130 15.438734,1080.032959 15.047683,1065.362427 
	C14.503138,1044.933472 13.832095,1024.486694 14.155214,1004.062378 
	C14.443883,985.815735 15.602312,967.555298 17.128891,949.364014 
	C18.509285,932.914917 20.683792,916.520752 22.914955,900.157837 
	C25.361776,882.213257 27.713554,864.224426 31.129086,846.451355 
	C35.192867,825.304932 39.970932,804.274963 45.149799,783.370544 
	C48.895191,768.252380 53.686451,753.386963 58.220242,738.472412 
	C62.001972,726.031738 65.778427,713.573608 70.130249,701.326843 
	C74.014702,690.395386 78.733482,679.762329 82.989189,668.960266 
	C86.064514,661.154236 88.668381,653.147705 92.046181,645.478882 
	C97.366013,633.400818 103.115936,621.510681 108.766281,609.580139 
	C113.500107,599.584656 118.224236,589.580750 123.197266,579.703735 
	C126.400909,573.340820 130.037750,567.195557 133.496323,560.961548 
	C140.033432,549.178650 146.404755,537.298767 153.190674,525.660706 
	C157.432297,518.386292 162.261261,511.450867 166.906769,504.416229 
	C173.528763,494.388641 180.007492,484.256256 186.944672,474.449615 
	C195.047104,462.995819 203.485809,451.775482 211.949997,440.583466 
	C218.923111,431.363007 225.984436,422.199249 233.303238,413.252960 
	C240.887878,403.981720 248.398682,394.587738 256.693573,385.971130 
	C284.573792,357.009552 312.494843,328.074036 341.027954,299.761078 
	C351.692017,289.179291 364.048462,280.296112 375.697540,270.716644 
	C382.516479,265.109222 389.378174,259.546936 396.372162,254.161026 
	C405.262146,247.315033 414.258820,240.604752 423.296356,233.953964 
	C431.956390,227.581009 440.531219,221.060959 449.502747,215.150970 
	C459.318848,208.684662 469.569061,202.879700 479.588928,196.719528 
	C489.430145,190.669159 499.041718,184.221420 509.078125,178.518402 
	C520.925720,171.786224 533.078613,165.584229 545.180054,159.308365 
	C553.745728,154.866135 562.372009,150.526169 571.102661,146.419937 
	C585.106140,139.833817 599.179382,133.391968 613.302856,127.067032 
	C619.412476,124.330925 625.720581,122.037872 632.253906,119.316437 
z"/>
<path fill="#ADD8E6" opacity="1.000000" stroke="none" 
	d="
M1679.162109,1777.426758 
	C1674.803833,1780.801147 1670.649658,1783.853271 1666.550415,1786.977295 
	C1658.201538,1793.339844 1649.879272,1799.737549 1641.552124,1806.128662 
	C1635.502930,1810.771484 1629.577026,1815.584473 1623.395752,1820.043701 
	C1610.975708,1829.003418 1598.587280,1838.024780 1585.867798,1846.546143 
	C1574.567627,1854.116333 1562.952148,1861.237427 1551.260864,1868.195679 
	C1541.894531,1873.770020 1532.230469,1878.848145 1522.652954,1884.062866 
	C1512.297485,1889.701416 1502.018311,1895.501953 1491.469971,1900.758667 
	C1479.222290,1906.862549 1466.718994,1912.453125 1454.325928,1918.264771 
	C1445.401611,1922.449951 1436.610596,1926.956177 1427.516968,1930.734375 
	C1416.145874,1935.458862 1404.584351,1939.746338 1392.998535,1943.927734 
	C1377.477661,1949.528809 1361.968262,1955.205200 1346.243652,1960.185425 
	C1331.055054,1964.996094 1315.625366,1969.058350 1300.252319,1973.269775 
	C1289.537598,1976.205078 1278.806152,1979.139893 1267.961304,1981.524780 
	C1255.658813,1984.230347 1243.240967,1986.431396 1230.837524,1988.651855 
	C1217.472290,1991.044434 1204.115967,1993.586670 1190.663696,1995.367188 
	C1175.263428,1997.405640 1159.763062,1998.689087 1144.303833,2000.278687 
	C1132.347412,2001.508179 1120.409424,2003.038330 1108.423096,2003.821411 
	C1096.367676,2004.608887 1084.264282,2004.707031 1072.178955,2004.976685 
	C1063.610962,2005.167969 1054.991455,2004.638672 1046.486572,2005.423340 
	C1042.118774,2005.826416 1041.983521,2004.162598 1041.986694,2001.061523 
	C1042.012085,1976.228394 1042.000610,1951.395386 1042.000610,1926.562256 
	C1042.000732,1819.396484 1042.000854,1712.230835 1042.001099,1605.065063 
	C1042.001099,1603.249268 1042.001099,1601.433594 1042.001099,1599.268066 
	C1213.189697,1598.798462 1358.681763,1537.113647 1474.153442,1411.374878 
	C1564.698242,1312.779541 1614.489746,1194.153564 1621.498535,1060.168579 
	C1630.081177,896.094604 1578.990112,751.510132 1465.690796,631.879517 
	C1351.182617,510.972656 1208.293823,453.122192 1042.000977,452.427490 
	C1042.000977,372.078888 1042.001099,291.913635 1042.000977,211.748367 
	C1042.000854,158.415497 1042.059814,105.082436 1041.896729,51.750061 
	C1041.882446,47.073154 1043.166382,45.654816 1047.811646,45.917992 
	C1063.228882,46.791451 1078.664062,47.358826 1094.095825,47.958668 
	C1104.883545,48.377998 1115.704468,48.288597 1126.460449,49.095894 
	C1139.467163,50.072136 1152.434448,51.639790 1165.393433,53.167000 
	C1176.650513,54.493645 1187.904907,55.912380 1199.101318,57.667820 
	C1212.853271,59.823944 1226.657227,61.859383 1240.236084,64.862694 
	C1264.827515,70.301758 1289.342529,76.130089 1313.746826,82.355194 
	C1329.860107,86.465454 1345.817261,91.261147 1361.667114,96.306274 
	C1372.079224,99.620529 1382.164307,103.956795 1392.416748,107.779243 
	C1401.338501,111.105568 1410.355957,114.185913 1419.202637,117.698509 
	C1424.495483,119.799973 1429.487183,122.646568 1434.710083,124.939926 
	C1443.323364,128.722031 1452.093262,132.154175 1460.649414,136.057968 
	C1468.547363,139.661575 1476.227417,143.739883 1484.046753,147.519638 
	C1492.202515,151.462067 1500.495117,155.129868 1508.565918,159.236282 
	C1514.391479,162.200256 1519.967529,165.658478 1525.626709,168.944641 
	C1533.587891,173.567474 1541.627441,178.067032 1549.444580,182.923706 
	C1560.613892,189.863113 1571.677490,196.978653 1582.664551,204.204071 
	C1593.067505,211.045319 1603.405151,217.994446 1613.600708,225.139832 
	C1622.466797,231.353424 1631.230957,237.730621 1639.793701,244.354294 
	C1651.439941,253.363190 1662.940552,262.566895 1674.332764,271.895630 
	C1681.924927,278.112640 1689.210938,284.702942 1696.650024,291.107666 
	C1701.091431,294.931641 1705.828979,298.452209 1709.978516,302.567963 
	C1732.934692,325.336823 1755.880615,348.119293 1778.544922,371.177399 
	C1786.456543,379.226410 1793.634155,388.006592 1801.002197,396.577332 
	C1807.679321,404.344574 1814.459595,412.053192 1820.650757,420.200745 
	C1828.510620,430.544312 1835.781738,441.333832 1843.386963,451.873077 
	C1847.268433,457.252045 1851.510498,462.377472 1855.259766,467.843658 
	C1861.017944,476.239227 1866.463989,484.848297 1872.097656,493.330109 
	C1875.114990,497.873199 1878.431030,502.226654 1881.290405,506.864075 
	C1887.303223,516.615295 1893.114624,526.490845 1898.985718,536.329102 
	C1901.443237,540.447083 1904.024902,544.504822 1906.236328,548.753357 
	C1914.569458,564.763977 1922.823120,580.816528 1931.002075,596.906494 
	C1934.447266,603.684265 1937.811401,610.514526 1940.899536,617.460022 
	C1947.705811,632.767578 1954.419067,648.118713 1960.960571,663.540955 
	C1964.621704,672.172791 1968.156250,680.880920 1971.228638,689.734802 
	C1976.051636,703.633728 1980.651245,717.619080 1984.948975,731.688965 
	C1989.858765,747.763062 1994.412964,763.947632 1998.966064,780.127930 
	C2001.259155,788.276489 2003.442139,796.470398 2005.259155,804.735107 
	C2008.254150,818.357971 2011.119751,832.016602 2013.652100,845.731689 
	C2016.104004,859.011292 2018.287964,872.349854 2020.183960,885.719971 
	C2022.164673,899.687561 2023.937500,913.697144 2025.289307,927.737671 
	C2026.543945,940.771667 2027.131592,953.870178 2027.997070,966.941284 
	C2028.650635,976.812927 2029.543457,986.678101 2029.846680,996.560974 
	C2030.171753,1007.156189 2030.052979,1017.770447 2029.908691,1028.373413 
	C2029.716919,1042.471924 2029.416870,1056.571045 2028.960327,1070.663330 
	C2028.698608,1078.745239 2028.251709,1086.833984 2027.505493,1094.884277 
	C2026.167969,1109.307983 2024.601685,1123.711426 2023.016235,1138.110840 
	C2021.766357,1149.461792 2020.535034,1160.820679 2018.943359,1172.126465 
	C2017.458984,1182.671265 2015.786255,1193.205566 2013.702759,1203.646118 
	C2010.349976,1220.447632 2006.718262,1237.196533 2002.953247,1253.911011 
	C2000.901001,1263.021362 1998.386597,1272.029663 1995.979004,1281.057007 
	C1993.728027,1289.497070 1991.513306,1297.952881 1988.977051,1306.309082 
	C1985.233398,1318.643188 1981.363403,1330.943115 1977.281738,1343.168945 
	C1972.650024,1357.041870 1968.068115,1370.948730 1962.819946,1384.592896 
	C1958.623291,1395.503052 1953.498169,1406.058350 1948.716187,1416.740356 
	C1944.520386,1426.113281 1940.393066,1435.522583 1935.936768,1444.771729 
	C1930.801636,1455.429565 1925.340576,1465.930420 1920.016846,1476.497192 
	C1915.936279,1484.596313 1912.066162,1492.811523 1907.700439,1500.754150 
	C1903.766602,1507.911133 1899.329712,1514.794678 1895.037720,1521.751343 
	C1886.396973,1535.756348 1877.920654,1549.869873 1868.959351,1563.667725 
	C1862.426758,1573.725830 1855.278809,1583.387207 1848.309448,1593.157227 
	C1840.931152,1603.500610 1833.468018,1613.783691 1825.977783,1624.046509 
	C1824.066528,1626.665161 1821.953735,1629.141113 1819.863647,1631.623901 
	C1814.298584,1638.233643 1808.763062,1644.870117 1803.093018,1651.389282 
	C1793.532715,1662.381592 1784.250244,1673.648071 1774.183350,1684.159912 
	C1754.626953,1704.580811 1734.806885,1724.759888 1714.702637,1744.641357 
	C1703.336182,1755.881714 1691.187500,1766.331177 1679.162109,1777.426758 
z"/>
<path fill="#FFFFFF" opacity="1.000000" stroke="none" 
	d="
M608.073181,772.988281 
	C592.130371,782.258484 580.690308,794.973938 572.736938,811.369629 
	C563.474426,830.463989 559.646545,850.438538 561.209778,871.333008 
	C561.812378,879.387024 564.798340,887.259644 566.663879,895.223022 
	C569.313171,906.532227 575.190674,916.167236 581.818848,925.527405 
	C588.567871,935.058228 597.006897,942.682251 607.029053,948.383423 
	C614.383911,952.567322 622.107056,956.245422 629.994507,959.301392 
	C635.180176,961.310547 640.921021,962.632935 646.464172,962.829956 
	C661.483398,963.363586 676.400513,963.579163 690.956970,957.770569 
	C704.458740,952.382812 716.923462,945.739868 727.735474,936.034363 
	C729.553772,934.402161 731.440002,932.845764 733.995667,930.653137 
	C733.995667,947.679993 734.069275,963.888672 733.850830,980.093506 
	C733.833984,981.339355 731.990356,983.015564 730.603943,983.717712 
	C716.409912,990.905640 701.804382,996.443665 685.909302,999.361206 
	C673.433044,1001.651184 661.095581,1002.381104 648.664307,1001.816101 
	C639.987915,1001.421875 631.169495,1000.096558 622.814026,997.759155 
	C613.179810,995.064148 603.731445,991.333923 594.679016,987.046997 
	C587.362793,983.582153 580.173279,979.326477 573.951111,974.183350 
	C560.908020,963.402039 548.788635,951.622803 539.552612,937.162109 
	C531.132751,923.979309 526.335083,909.622620 522.764648,894.448792 
	C518.711243,877.222351 519.404175,859.876648 520.408447,842.726379 
	C521.206238,829.102722 524.388245,815.310608 530.726685,802.807678 
	C535.653015,793.090210 540.300171,783.048584 546.631897,774.277588 
	C552.989380,765.470886 560.715027,757.426208 568.850464,750.181091 
	C581.482056,738.931885 596.176331,730.780823 612.755066,726.789185 
	C622.777710,724.375977 632.967163,722.434753 643.190674,721.146362 
	C651.512695,720.097595 660.060059,719.536133 668.393127,720.198486 
	C679.339844,721.068542 690.480530,722.291748 700.971375,725.323303 
	C711.558228,728.382629 721.489441,733.757263 731.599609,738.355652 
	C732.755798,738.881653 733.882263,740.931946 733.896362,742.287109 
	C734.056702,757.754456 733.998230,773.224121 733.998230,789.961060 
	C728.677979,785.942139 724.156921,782.436890 719.542908,779.058472 
	C706.269409,769.339233 691.671082,762.512939 675.335449,760.069763 
	C662.304382,758.120911 649.197021,757.640015 636.420898,761.878601 
	C627.362854,764.883789 618.379883,768.116638 609.391174,771.325623 
	C608.948120,771.483826 608.771423,772.388062 608.073181,772.988281 
z"/>
<path fill="#FFFFFF" opacity="1.000000" stroke="none" 
	d="
M773.757996,1165.732422 
	C778.169067,1159.650757 782.230225,1153.783325 786.473145,1148.050537 
	C794.799255,1136.800415 805.702942,1128.076538 817.278687,1120.816406 
	C826.695190,1114.910522 836.812683,1109.435059 848.447937,1107.857056 
	C856.683899,1106.740234 864.707764,1104.136719 872.907288,1102.640381 
	C876.929626,1101.906494 881.134827,1102.072388 885.259521,1102.024170 
	C892.589478,1101.938721 900.003113,1101.308960 907.232666,1102.165405 
	C917.603516,1103.393921 927.845886,1105.723145 938.133301,1107.635254 
	C948.080139,1109.484253 956.730286,1114.322754 965.073059,1119.723022 
	C966.412781,1120.590210 967.854370,1122.545410 967.873596,1124.015625 
	C968.076050,1139.482544 967.998718,1154.953125 967.998718,1170.994995 
	C962.095337,1166.654175 956.603088,1162.518066 951.010071,1158.523193 
	C938.984680,1149.933594 925.578125,1144.070312 911.197205,1141.372803 
	C903.167480,1139.866821 894.634460,1141.125977 886.331055,1140.980469 
	C870.005188,1140.694336 855.307678,1146.031738 841.518860,1154.146362 
	C826.758789,1162.832520 814.973938,1174.818970 807.644287,1190.195068 
	C802.874878,1200.200439 799.534119,1211.133667 797.229248,1222.006348 
	C794.173096,1236.423462 794.813354,1251.006470 797.677490,1265.695435 
	C800.703979,1281.216675 807.059570,1294.968506 816.255066,1307.438721 
	C822.884094,1316.428345 830.896362,1324.296265 841.023315,1329.480347 
	C848.569824,1333.343384 856.109131,1337.368530 864.028198,1340.306274 
	C869.695312,1342.408325 875.939392,1343.388062 882.007385,1343.895630 
	C900.327637,1345.428101 918.129150,1343.056885 934.845581,1334.957764 
	C946.646240,1329.240479 957.364685,1321.889771 966.813599,1312.746582 
	C966.992371,1312.573608 967.350708,1312.586304 967.998108,1312.411987 
	C967.998108,1328.592896 968.083923,1344.674561 967.847229,1360.751587 
	C967.826660,1362.148926 965.957703,1364.052368 964.480164,1364.812134 
	C950.370728,1372.067383 935.784668,1377.461060 919.940247,1380.391357 
	C907.450439,1382.701050 895.121155,1383.322510 882.697144,1382.809082 
	C874.024475,1382.450562 865.207092,1381.094849 856.849792,1378.765625 
	C846.777100,1375.958130 836.868652,1372.198120 827.373840,1367.803223 
	C820.610352,1364.672729 814.268311,1360.285278 808.426636,1355.600342 
	C801.703796,1350.208496 795.661804,1343.951172 789.460693,1337.929077 
	C775.752808,1324.616943 766.093567,1308.560913 760.468140,1290.523804 
	C756.431458,1277.580811 753.278809,1264.182495 753.965942,1250.292358 
	C754.471924,1240.062500 753.888733,1229.717651 755.187073,1219.603271 
	C756.835999,1206.758545 759.415283,1193.988403 765.815125,1182.351685 
	C768.709717,1177.088501 770.952026,1171.466675 773.757996,1165.732422 
z"/>
<path fill="#FFFFFF" opacity="1.000000" stroke="none" 
	d="
M775.999634,867.999146 
	C782.883118,853.739746 792.230103,842.248901 805.452698,833.697388 
	C816.683289,826.434082 828.645630,822.538940 841.801514,820.849915 
	C853.587646,819.336853 864.722656,820.932251 875.651855,824.988403 
	C884.973267,828.447937 892.540833,834.506653 899.726074,842.289124 
	C899.726074,836.338318 899.726074,830.984314 899.726074,825.317627 
	C913.891785,825.317627 927.631409,825.317627 941.770386,825.317627 
	C941.840149,826.573853 941.988647,828.003967 941.988953,829.434082 
	C942.000732,883.429565 941.951965,937.425171 942.087769,991.420288 
	C942.098633,995.743103 941.022888,997.235779 936.523743,997.101685 
	C925.867432,996.784241 915.193237,996.883301 904.530640,997.065674 
	C901.029053,997.125488 899.712646,995.991028 899.947510,992.473206 
	C900.189087,988.853760 900.001160,985.205566 900.001160,981.842651 
	C893.952209,986.109741 888.338013,991.284973 881.749084,994.395569 
	C874.325500,997.900208 866.167664,1000.783142 858.072205,1001.723267 
	C844.209412,1003.333252 830.288940,1001.777893 817.370117,995.887817 
	C811.561523,993.239502 805.745361,990.104065 800.843201,986.080383 
	C791.661438,978.543823 783.531128,969.857666 778.417419,958.872986 
	C772.389465,945.924255 767.419495,932.716187 767.947815,918.028137 
	C768.241211,909.872314 766.968506,901.526672 768.281372,893.577026 
	C769.699158,884.992676 773.309326,876.770386 775.999634,867.999146 
M856.467651,857.999329 
	C851.506897,858.664917 846.420105,858.841431 841.607422,860.081726 
	C821.971680,865.142212 812.226440,885.965881 810.352112,900.400879 
	C809.055725,910.384949 808.870972,920.738220 812.687866,930.993408 
	C816.499573,941.234802 821.485779,950.090881 830.177734,956.608887 
	C838.901184,963.150513 848.825745,964.943726 859.659363,964.131042 
	C870.498962,963.317932 879.774353,959.410767 887.407227,951.984436 
	C899.779236,939.947327 902.685364,924.263428 902.840088,907.929260 
	C902.883179,903.380981 900.904907,898.833252 900.020569,894.253113 
	C896.218811,874.562195 879.585327,858.096985 856.467651,857.999329 
z"/>
<path fill="#FFFFFF" opacity="1.000000" stroke="none" 
	d="
M1157.999146,1377.999756 
	C1150.999634,1377.999634 1144.497070,1377.887939 1138.001221,1378.048096 
	C1134.927368,1378.124023 1133.822144,1376.959229 1133.959229,1373.945190 
	C1134.131470,1370.156372 1134.000732,1366.353882 1134.000732,1362.941284 
	C1127.951050,1367.180786 1122.329834,1372.455200 1115.680176,1375.434326 
	C1107.757690,1378.984009 1099.089722,1381.709229 1090.499268,1382.733521 
	C1077.297974,1384.307983 1063.999512,1382.916016 1051.797729,1376.917114 
	C1045.512329,1373.827026 1039.344604,1370.251709 1033.743164,1366.066528 
	C1021.914734,1357.228638 1013.736938,1345.176880 1008.570251,1331.655640 
	C1005.053589,1322.452515 1003.577454,1312.343994 1002.181946,1302.499512 
	C1001.232361,1295.800659 1002.015198,1288.858154 1001.997375,1282.024658 
	C1001.961060,1268.101807 1006.660950,1255.608398 1012.952332,1243.410889 
	C1018.595276,1232.470947 1026.639038,1223.468750 1036.348267,1216.607422 
	C1047.768311,1208.536987 1060.851685,1203.757324 1075.080200,1201.760498 
	C1085.462280,1200.303467 1095.383423,1201.741455 1104.989624,1204.296631 
	C1115.008179,1206.961548 1123.671875,1212.998413 1130.958984,1220.639648 
	C1131.735718,1221.454102 1132.645020,1222.142212 1134.031616,1223.363525 
	C1134.031616,1217.176392 1134.031616,1211.885132 1134.031616,1206.298096 
	C1147.932373,1206.298096 1161.671997,1206.298096 1175.706543,1206.298096 
	C1175.706543,1263.278931 1175.706543,1320.349731 1175.706543,1377.999756 
	C1170.028931,1377.999756 1164.263794,1377.999756 1157.999146,1377.999756 
M1044.000488,1304.075928 
	C1046.875610,1313.941162 1050.157837,1323.708252 1057.126953,1331.507690 
	C1066.825073,1342.361206 1079.157959,1346.326172 1093.647217,1345.124146 
	C1103.898682,1344.273438 1112.859741,1340.901367 1120.355347,1334.057861 
	C1133.628784,1321.939331 1136.763672,1305.832886 1136.840820,1288.917725 
	C1136.863892,1283.862671 1135.341919,1278.701294 1133.931030,1273.758911 
	C1130.481445,1261.674927 1124.184082,1251.523071 1112.995117,1244.994507 
	C1104.104126,1239.807129 1094.389404,1237.399902 1084.378052,1239.221924 
	C1077.462891,1240.480347 1069.713379,1242.326294 1064.465454,1246.552856 
	C1051.494751,1256.999146 1044.051880,1271.039429 1044.001221,1288.260620 
	C1043.986572,1293.231689 1043.999146,1298.202759 1044.000488,1304.075928 
z"/>
<path fill="#FFFFFF" opacity="1.000000" stroke="none" 
	d="
M1393.999023,974.999817 
	C1393.998901,981.165405 1393.824707,986.838440 1394.062500,992.494080 
	C1394.211304,996.036072 1392.925049,997.122498 1389.450073,997.064453 
	C1378.788330,996.886292 1368.114990,996.781311 1357.459839,997.102722 
	C1352.937134,997.239136 1351.901489,995.702942 1351.913208,991.404602 
	C1352.050049,940.913879 1352.000977,890.422729 1352.000977,839.931641 
	C1352.000977,835.127808 1352.000977,830.324036 1352.000977,825.261658 
	C1366.007202,825.261658 1379.744507,825.261658 1393.828125,825.261658 
	C1393.828125,829.333557 1393.828125,833.409546 1393.828125,838.388184 
	C1396.104736,836.556519 1397.734863,835.258789 1399.350220,833.943054 
	C1413.346436,822.542480 1429.610229,817.912048 1447.210205,820.196411 
	C1465.410278,822.558594 1481.702759,829.844727 1491.524170,846.390808 
	C1496.147217,854.178833 1498.326294,863.104126 1499.168823,872.505981 
	C1502.646606,911.316956 1500.216797,950.183167 1501.002319,989.011108 
	C1501.148682,996.251831 1499.405884,997.309387 1493.283447,997.094299 
	C1483.297485,996.743652 1473.285034,996.810974 1463.294556,997.089539 
	C1459.119141,997.205994 1457.887939,995.959229 1457.909912,991.739380 
	C1458.076172,959.745911 1458.244507,927.748230 1457.856201,895.758606 
	C1457.735596,885.834473 1457.035400,875.608215 1450.961182,866.980286 
	C1446.930786,861.255798 1441.736084,857.462402 1434.173462,857.949036 
	C1429.858765,858.226624 1425.457886,858.435242 1421.189819,857.910461 
	C1411.578735,856.728638 1402.313599,866.586365 1400.062622,873.241028 
	C1396.146729,884.817017 1393.769409,896.644592 1393.923096,909.012085 
	C1394.194336,930.838318 1393.999023,952.670288 1393.999023,974.999817 
z"/>
<path fill="#FFFFFF" opacity="1.000000" stroke="none" 
	d="
M1106.976562,830.038696 
	C1120.392212,860.308044 1133.786499,890.171387 1147.432373,920.595215 
	C1161.916138,888.408875 1176.095825,856.898376 1190.367188,825.184204 
	C1205.342896,825.184204 1220.457275,825.184204 1236.435547,825.184204 
	C1234.657227,829.382507 1233.153442,833.320923 1231.350586,837.117310 
	C1225.599365,849.227905 1219.807251,861.320251 1213.894653,873.352661 
	C1209.378296,882.543640 1204.572510,891.592407 1200.045166,900.778259 
	C1194.950562,911.114990 1190.001587,921.523926 1185.029785,931.920776 
	C1177.276855,948.132874 1169.566528,964.365417 1161.821411,980.581299 
	C1157.892456,988.807312 1153.955200,997.029663 1149.942993,1005.215027 
	C1149.431641,1006.258484 1148.443237,1007.068054 1147.675903,1007.985962 
	C1146.786743,1007.017700 1145.601074,1006.192566 1145.053589,1005.059143 
	C1138.105103,990.675598 1131.312256,976.216797 1124.351562,961.839172 
	C1116.427979,945.472656 1108.328369,929.191467 1100.391846,912.831177 
	C1092.307129,896.165222 1084.378784,879.423401 1076.284302,862.762146 
	C1070.930908,851.742981 1065.375854,840.821899 1059.995483,829.815613 
	C1059.342407,828.479675 1059.214966,826.886780 1058.776001,825.143250 
	C1074.335083,825.143250 1089.312378,825.143250 1104.475708,825.143250 
	C1105.266724,826.575500 1106.111084,828.104126 1106.976562,830.038696 
z"/>
<path fill="#FFFFFF" opacity="1.000000" stroke="none" 
	d="
M1032.999756,705.110046 
	C1032.999756,802.563171 1032.999756,899.526123 1032.999756,996.744202 
	C1018.980469,996.744202 1005.242493,996.744202 991.252075,996.744202 
	C991.252075,897.973022 991.252075,799.239197 991.252075,700.253113 
	C1005.027222,700.253113 1018.764954,700.253113 1032.999634,700.253113 
	C1032.999634,701.735596 1032.999634,703.177734 1032.999756,705.110046 
z"/>
<path fill="#FFFFFF" opacity="1.000000" stroke="none" 
	d="
M1266.999756,1326.000000 
	C1266.999756,1343.475586 1266.999756,1360.451172 1266.999756,1377.712891 
	C1253.046631,1377.712891 1239.308716,1377.712891 1225.284912,1377.712891 
	C1225.284912,1320.708130 1225.284912,1263.641846 1225.284912,1206.287598 
	C1238.954224,1206.287598 1252.692139,1206.287598 1266.999756,1206.287598 
	C1266.999756,1245.983154 1266.999756,1285.741577 1266.999756,1326.000000 
z"/>
<path fill="#FFFFFF" opacity="1.000000" stroke="none" 
	d="
M1303.999634,983.990540 
	C1303.999634,988.466919 1303.999634,992.444824 1303.999634,996.985779 
	C1290.697266,996.985779 1277.602051,997.032349 1264.509399,996.877197 
	C1263.667847,996.867249 1262.776733,995.351990 1262.051025,994.425415 
	C1261.806885,994.113586 1262.000854,993.455505 1262.000977,992.955688 
	C1262.016113,937.301697 1262.031494,881.647705 1262.054688,825.993713 
	C1262.054688,825.850525 1262.169800,825.707336 1262.351929,825.282288 
	C1275.963623,825.282288 1289.700684,825.282288 1303.999634,825.282288 
	C1303.999634,877.985962 1303.999634,930.739014 1303.999634,983.990540 
z"/>
<path fill="#FFFFFF" opacity="1.000000" stroke="none" 
	d="
M1260.618896,741.888428 
	C1269.883057,726.456482 1288.294556,724.907166 1300.886719,734.660889 
	C1308.850220,740.829285 1312.734375,752.867432 1308.604004,763.841553 
	C1306.313843,769.926147 1302.888306,775.122925 1296.605713,778.083984 
	C1280.417358,785.713684 1261.750488,778.517578 1257.996948,760.420471 
	C1256.674316,754.043945 1258.058716,748.044922 1260.618896,741.888428 
z"/>
<path fill="#FFFFFF" opacity="1.000000" stroke="none" 
	d="
M1240.477783,1161.999023 
	C1231.461304,1159.741943 1225.539062,1154.452271 1221.849731,1146.435425 
	C1217.917480,1137.890869 1220.806396,1123.406982 1227.873047,1117.019653 
	C1234.582520,1110.955200 1242.081177,1109.469604 1251.195679,1110.706299 
	C1261.334351,1112.081909 1267.938721,1117.622803 1270.761230,1126.157227 
	C1276.057373,1142.170044 1269.000732,1161.214355 1248.403931,1161.987183 
	C1245.914185,1162.080688 1243.417847,1161.999512 1240.477783,1161.999023 
z"/>
<path fill="#000000" opacity="1.000000" stroke="none" 
	d="
M856.951294,857.999390 
	C879.585327,858.096985 896.218811,874.562195 900.020569,894.253113 
	C900.904907,898.833252 902.883179,903.380981 902.840088,907.929260 
	C902.685364,924.263428 899.779236,939.947327 887.407227,951.984436 
	C879.774353,959.410767 870.498962,963.317932 859.659363,964.131042 
	C848.825745,964.943726 838.901184,963.150513 830.177734,956.608887 
	C821.485779,950.090881 816.499573,941.234802 812.687866,930.993408 
	C808.870972,920.738220 809.055725,910.384949 810.352112,900.400879 
	C812.226440,885.965881 821.971680,865.142212 841.607422,860.081726 
	C846.420105,858.841431 851.506897,858.664917 856.951294,857.999390 
z"/>
<path fill="#000000" opacity="1.000000" stroke="none" 
	d="
M1043.999878,1303.624878 
	C1043.999146,1298.202759 1043.986572,1293.231689 1044.001221,1288.260620 
	C1044.051880,1271.039429 1051.494751,1256.999146 1064.465454,1246.552856 
	C1069.713379,1242.326294 1077.462891,1240.480347 1084.378052,1239.221924 
	C1094.389404,1237.399902 1104.104126,1239.807129 1112.995117,1244.994507 
	C1124.184082,1251.523071 1130.481445,1261.674927 1133.931030,1273.758911 
	C1135.341919,1278.701294 1136.863892,1283.862671 1136.840820,1288.917725 
	C1136.763672,1305.832886 1133.628784,1321.939331 1120.355347,1334.057861 
	C1112.859741,1340.901367 1103.898682,1344.273438 1093.647217,1345.124146 
	C1079.157959,1346.326172 1066.825073,1342.361206 1057.126953,1331.507690 
	C1050.157837,1323.708252 1046.875610,1313.941162 1043.999878,1303.624878 
z"/>
</svg>